/* XPM */
static char *aca72740a93240e6c51444a65dae3871L2LXlz91cXPtaBGd[] = {
/* columns rows colors chars-per-pixel */
"32 32 8 1 ",
"  c None",
". c #BF4830",
"X c #F77622",
"o c #D77643",
"O c #FEAE34",
"+ c #C28569",
"@ c #E8B796",
"# c #EBD4AB",
/* pixels */
"                                ",
"                                ",
"                                ",
"                                ",
"                                ",
"                                ",
"                                ",
"                   ##  ##       ",
"                   #@@ ###@     ",
"                  #@@+ #@@@     ",
"                ###+  #@@++     ",
"            XXXX@#+ X#@@        ",
"          XXXXXX..XXXX@         ",
"         XXXXo..XXX.XX.         ",
"        XXXo...XXOoXXo..        ",
"       XXoo...XO.ooXoX..        ",
"       Xoo...XXXoo.oo...        ",
"      XXo.OOO.XXOX.oX..         ",
"     .XX.OXXXO.XXoooo...        ",
"    X.XoOXXoXXX..ooooo...       ",
"   X..X.OooooXoo..oooo....      ",
"   X..X.oooo.oooXo.oooo...      ",
"   o..X..Xooo....oo.ooo...      ",
"    o.XX.oooo.......oo...       ",
"      .o..oooo..........        ",
"                                ",
"                                ",
"                                ",
"                                ",
"                                ",
"                                ",
"                                "
};
