/* XPM */
static char *eb6aee3fdd674abfeea0e395250a6928Y8UEbdWdDes622Kg[] = {
/* columns rows colors chars-per-pixel */
"32 32 3 1 ",
"  c None",
". c #3A4467",
"X c #FDAE35",
/* pixels */
"                                ",
"                                ",
"             .......            ",
"           ...........          ",
"         ...............        ",
"        .................       ",
"       ...................      ",
"      XXX........XX....XXXX     ",
"     XXXXX.....XXX..XXXXXXXX    ",
"    XXXXXX.....XXXXXXXXXXXXXX   ",
"    XXXXX....XXXXXXXXXXXXXXXX   ",
"   XXX.........XXXXXXXXXXXXXXX  ",
"   XXX..........XXXXXXXXXXXXX.  ",
"  XXX............XXXXXX..XX.X.. ",
"  XXX............XXX........XX. ",
"  X...............XXX........X. ",
"  X.............XXXXXX.......X. ",
"  X.............XXXXXXX........ ",
"  XX............XXXXXXX........ ",
"  XX..............XXXXX.....XX. ",
"   XX.............XXXXX..XXXXX  ",
"   XX..............XXX...XXXXX  ",
"    XX.............XXX....XXX   ",
"    XX..............XX......X   ",
"     ...............X.......    ",
"      .....................     ",
"       ...................      ",
"        .................       ",
"         ...............        ",
"           ...........          ",
"             .......            ",
"                                "
};
