/* XPM */
static char *b30dee067501404fbac0baf58da6bee9E609EbzhsOwtDzZ4[] = {
/* columns rows colors chars-per-pixel */
"32 32 8 1 ",
"  c None",
". c #4A682C",
"X c #252B43",
"o c #3A4467",
"O c #BF4830",
"+ c #F77622",
"@ c #0099DC",
"# c #EBD4AB",
/* pixels */
"          oooooooooooo          ",
"          oooooooooooo          ",
"        oooooooooooooooo        ",
"        oooooooooooooooo        ",
"        oooooooooooooooo        ",
"        oooooooooooooooo        ",
"        oooooooooooooooo        ",
"        XXooooooooooooXX        ",
"      OOXXXXXXXXXXXXXXXXOO      ",
"      OOXXXXXXXXXXXXXXXXOO      ",
"      OOXXXXXXXXXXXXXXXXOO      ",
"      OOXXOOOOOOOOOOOOXXOO      ",
"      OOXXOOOOOOOOOOOOXXOO      ",
"        OOOOXXOOOOXXOOOO        ",
"     +++OOOOXXOOOOXXOOOO+++     ",
"    ++++OOOOXXOOOOXXOOOO++++    ",
"   +++++XXOOOOOOOOOOOOXX+++++   ",
"   +++++XXOOOOOOOOOOOOXX+++++   ",
"   O++++XXXXXO####OXXXXX++++O   ",
"   OOOO+XXXXXOOOOOOXXXXX+OOOO   ",
"   OOOO++++XXXXXXXXXX++++OOOO   ",
"   OOOO++++XXXXXXXXXX++++OOOO   ",
"   OOOO++++++++++++++++++OOOO   ",
"   OOOO++++++++++++++++++OOOO   ",
"    OOO++++++++++++++++++OOO    ",
"      ++++++++++++++++++++      ",
"      @@++++++++++++++++@@      ",
"      @@@@@@@@@  @@@@@@@@@      ",
"      OOOOOOOO    OOOOOOOO      ",
"      OOOOOOOO    OOOOOOOO      ",
"      #....#        #....#      ",
"      ######        ######      "
};
